Coordinates
version=1
nRows=39
nColumns=18
inDegrees=yes

Units are S.I. units (second, meters, Newtons, ...)
Angles are in degrees.

endheader
time	ground_thorax_rot_x	ground_thorax_rot_y	ground_thorax_rot_z	ground_thorax_tx	ground_thorax_ty	ground_thorax_tz	clav_prot	clav_elev	scapula_abduction	scapula_elevation	scapula_upward_rot	scapula_winging	plane_elv	shoulder_elv	axial_rot	elbow_flexion	pro_sup
      2.31000000	      1.42282952	     -8.43424677	    -10.26149645	     -0.00423131	      0.00403036	     -0.00078352	    -18.53991916	     -0.82200977	     -4.00025522	     -2.17445576	     16.93339998	      3.03306210	    -14.48489621	     13.80788063	     35.92197664	      0.00000000	     34.32000000
      2.32000000	      1.40191622	     -8.53285810	    -10.15511078	     -0.00423131	      0.00403036	     -0.00078352	    -18.22789620	     -1.42875029	     -3.87836340	     -2.37099900	     15.96476853	      3.38198558	    -13.45174150	     15.02976349	     32.44066635	      0.00000000	     34.32000000
      2.33000000	      1.63789447	     -8.38158025	    -10.31189951	     -0.00423131	      0.00403036	     -0.00078352	    -18.24440801	     -1.86532997	     -3.80939720	     -2.69404725	     15.93148512	      3.49669949	    -14.29430756	     15.40965784	     32.74232254	      0.00000000	     34.32000000
      2.34000000	      1.43602365	     -8.30163603	    -10.02962019	     -0.00423131	      0.00403036	     -0.00078352	    -18.10410076	     -2.19894343	     -3.46299459	     -2.94419686	     15.94844991	      3.55107862	    -19.01051724	     14.25757476	     45.90161296	      0.00000000	     34.32000000
      2.35000000	      1.28560124	     -8.25368620	    -10.04526739	     -0.00423131	      0.00403036	     -0.00078352	    -18.04529629	     -2.70934081	     -3.44511815	     -3.23732246	     15.59158708	      3.76794789	    -19.25972575	     14.65903829	     44.22130049	      0.00000000	     34.32000000
      2.36000000	      1.47014274	     -8.26938017	    -10.03294248	     -0.00423131	      0.00403036	     -0.00078352	    -18.03381068	     -2.86418671	     -3.37831897	     -3.35730840	     15.60357166	      3.80466732	    -19.33728953	     14.89936554	     44.26044839	      0.00000000	     34.32000000
      2.37000000	      1.11947723	     -8.12283789	     -9.97396124	     -0.00423131	      0.00403036	     -0.00078352	    -18.07422900	     -3.56192914	     -3.66856190	     -3.72344321	     14.95369653	      4.17693916	    -19.05113014	     15.66992808	     40.11967798	      0.00000000	     34.32000000
      2.38000000	      1.22916073	     -8.06527815	     -9.94555527	     -0.00423131	      0.00403036	     -0.00078352	    -18.07754473	     -3.58232613	     -3.66752493	     -3.74016511	     14.95773364	      4.18289909	    -19.05504755	     15.69107102	     40.13113812	      0.00000000	     34.32000000
      2.39000000	      1.34047621	     -7.77138380	     -9.97228864	     -0.00423131	      0.00403036	     -0.00078352	    -18.32458791	     -3.54311398	     -4.10139206	     -3.72745900	     14.97485153	      4.21025525	    -19.10508556	     15.73619738	     40.03245529	      0.00000000	     34.32000000
      2.40000000	      1.32373554	     -7.71151354	     -9.96560500	     -0.00423131	      0.00403036	     -0.00078352	    -18.31371497	     -3.51548823	     -4.10854736	     -3.69728850	     14.94170310	      4.20879739	    -19.06057094	     15.70774260	     40.05096382	      0.00000000	     34.32000000
      2.41000000	      1.27651415	     -7.54852094	     -9.88288235	     -0.00423131	      0.00403036	     -0.00078352	    -18.36558283	     -3.54908707	     -4.46249591	     -3.60838175	     14.48746246	      4.34406743	    -17.83450959	     16.10965462	     37.94169800	      0.00000000	     34.32000000
      2.42000000	      1.35436406	     -7.46355340	     -9.88505938	     -0.00423131	      0.00403036	     -0.00078352	    -18.35156184	     -3.56394985	     -4.44364855	     -3.61502729	     14.47204764	      4.35032697	    -17.82453548	     16.10414117	     37.95683104	      0.00000000	     34.32000000
      2.43000000	      1.45622953	     -7.25905810	     -9.90069341	     -0.00423131	      0.00403036	     -0.00078352	    -18.49825384	     -3.62288335	     -4.66814669	     -3.67579351	     14.50376577	      4.38399940	    -18.74061987	     15.46471485	     45.80173216	      0.00000000	     34.32000000
      2.44000000	      1.32431299	     -7.08432033	     -9.93875860	     -0.00423131	      0.00403036	     -0.00078352	    -18.60038184	     -3.90749386	     -4.97296100	     -3.81313271	     14.17532164	      4.56897833	    -18.11544069	     15.86585433	     42.11910779	      0.00000000	     34.32000000
      2.45000000	      1.50339466	     -7.29884239	     -9.86871849	     -0.00423131	      0.00403036	     -0.00078352	    -18.28149700	     -3.69544686	     -4.40588301	     -3.66039988	     14.27423998	      4.42748232	    -18.17310594	     15.90210168	     41.94757852	      0.00000000	     34.32000000
      2.46000000	      1.52858093	     -7.17790479	     -9.87880774	     -0.00423131	      0.00403036	     -0.00078352	    -18.26839377	     -3.80857191	     -4.60459963	     -3.63617200	     13.85217529	      4.56675883	    -16.91439225	     16.41598785	     38.97583688	      0.00000000	     34.32000000
      2.47000000	      1.42601488	     -7.20313910	     -9.92739484	     -0.00423131	      0.00403036	     -0.00078352	    -18.10976325	     -4.05936898	     -4.36196906	     -3.77681272	     13.68852072	      4.65492620	    -17.86016881	     16.31999217	     40.83127155	      0.00000000	     34.32000000
      2.48000000	      1.46662961	     -7.15455052	     -9.95384848	     -0.00423131	      0.00403036	     -0.00078352	    -18.05778250	     -4.22350796	     -4.35591187	     -3.84408128	     13.47630007	      4.74882901	    -17.72134224	     16.54469570	     39.99887335	      0.00000000	     34.32000000
      2.49000000	      1.59551335	     -7.05972613	     -9.95594432	     -0.00423131	      0.00403036	     -0.00078352	    -18.03606597	     -4.24405258	     -4.33696090	     -3.84791180	     13.43532846	      4.76175425	    -17.72928684	     16.50783596	     40.01002988	      0.00000000	     34.32000000
      2.50000000	      1.48191532	     -6.93080215	     -9.88487872	     -0.00423131	      0.00403036	     -0.00078352	    -18.00930956	     -4.49913478	     -4.34347017	     -3.99080539	     13.24108603	      4.88393954	    -18.81458814	     16.46727321	     41.15035970	      0.00000000	     34.32000000
      2.51000000	      1.55261575	     -6.91712676	     -9.89906669	     -0.00423131	      0.00403036	     -0.00078352	    -17.99673554	     -4.51399101	     -4.33199080	     -3.99521549	     13.21720244	      4.89264110	    -18.80451549	     16.41580040	     41.16254654	      0.00000000	     34.32000000
      2.52000000	      1.43783032	     -7.07495191	     -9.89772950	     -0.00423131	      0.00403036	     -0.00078352	    -17.82979440	     -4.74371077	     -4.11012895	     -4.10653117	     13.00404554	      4.98709467	    -19.04004448	     16.54976347	     41.49153353	      0.00000000	     34.32000000
      2.53000000	      1.39414691	     -7.16622323	     -9.94245910	     -0.00423131	      0.00403036	     -0.00078352	    -17.75204708	     -4.84498403	     -3.93248852	     -4.18848299	     13.03585337	      4.99647279	    -19.42550864	     16.45823024	     42.04099266	      0.00000000	     34.32000000
      2.54000000	      1.48680367	     -7.04707700	    -10.04445232	     -0.00423131	      0.00403036	     -0.00078352	    -17.90076190	     -4.75085192	     -4.17399284	     -4.14236886	     13.10570882	      4.97717675	    -18.53719687	     16.54446039	     39.35770564	      0.00000000	     34.32000000
      2.55000000	      1.49273011	     -6.98374113	     -9.90623845	     -0.00423131	      0.00403036	     -0.00078352	    -17.97821497	     -4.55176318	     -4.27380625	     -4.03109828	     13.24694137	      4.89354521	    -19.93680208	     15.46826351	     48.86100434	      0.00000000	     34.32000000
      2.56000000	      1.51024159	     -7.00244677	     -9.90634091	     -0.00423131	      0.00403036	     -0.00078352	    -17.97928014	     -4.55179270	     -4.27947909	     -4.02921679	     13.23989514	      4.89545338	    -19.92620260	     15.42793443	     48.86120861	      0.00000000	     34.32000000
      2.57000000	      1.47145274	     -6.91154335	     -9.95818591	     -0.00423131	      0.00403036	     -0.00078352	    -18.07560771	     -4.63302696	     -4.58302765	     -4.02683005	     12.97524495	      5.00522619	    -18.55347737	     15.84213536	     44.43214064	      0.00000000	     34.32000000
      2.58000000	      1.45342393	     -6.78226168	     -9.99674831	     -0.00423131	      0.00403036	     -0.00078352	    -18.23633623	     -4.63259681	     -4.85691460	     -4.03851469	     12.98904131	      5.03035367	    -18.52527860	     15.80572139	     43.30318657	      0.00000000	     34.32000000
      2.59000000	      1.46718172	     -6.74861579	     -9.88016172	     -0.00423131	      0.00403036	     -0.00078352	    -18.22602960	     -4.55332647	     -4.88044454	     -3.96660221	     12.94877749	      5.01400065	    -18.93758906	     15.69389814	     43.61231020	      0.00000000	     34.32000000
      2.60000000	      1.41460086	     -6.66117034	     -9.82813191	     -0.00423131	      0.00403036	     -0.00078352	    -18.32828599	     -4.61317320	     -5.17837970	     -3.95718500	     12.71909352	      5.10859904	    -18.96043585	     15.61894651	     43.83268121	      0.00000000	     34.32000000
      2.61000000	      1.30565357	     -6.58427548	     -9.87378788	     -0.00423131	      0.00403036	     -0.00078352	    -18.44086943	     -4.81449373	     -5.44487989	     -4.06418946	     12.51751299	      5.24188315	    -19.70885350	     15.38248773	     45.21305552	      0.00000000	     34.32000000
      2.62000000	      1.29614647	     -6.50613601	     -9.97513016	     -0.00423131	      0.00403036	     -0.00078352	    -18.54006848	     -5.01635960	     -5.64778863	     -4.18951396	     12.38572876	      5.35620846	    -20.55701441	     15.31825742	     45.90146849	      0.00000000	     34.32000000
      2.63000000	      1.32031994	     -6.43602352	     -9.93978717	     -0.00423131	      0.00403036	     -0.00078352	    -18.57082412	     -5.10144368	     -5.76565753	     -4.21777817	     12.23971679	      5.42533214	    -21.39547721	     15.35839220	     46.77828398	      0.00000000	     34.32000000
      2.64000000	      1.35922633	     -6.35151087	     -9.87813117	     -0.00423131	      0.00403036	     -0.00078352	    -18.61770947	     -5.08231078	     -5.92300467	     -4.17244248	     12.11512656	      5.45801036	    -21.23615611	     15.60202659	     45.40537543	      0.00000000	     34.32000000
      2.65000000	      1.50108490	     -6.37208172	     -9.85720013	     -0.00423131	      0.00403036	     -0.00078352	    -18.66321138	     -4.89205024	     -5.92024353	     -4.08734720	     12.33590657	      5.34925339	    -21.12278967	     15.57689446	     45.15094681	      0.00000000	     34.32000000
      2.66000000	      1.54768996	     -6.37060637	     -9.84569239	     -0.00423131	      0.00403036	     -0.00078352	    -18.83359475	     -4.73329329	     -6.07501593	     -4.05786920	     12.65023755	      5.24741971	    -21.84700721	     14.86015734	     50.55017382	      0.00000000	     34.32000000
      2.67000000	      1.33222267	     -6.43562929	     -9.90207652	     -0.00423131	      0.00403036	     -0.00078352	    -18.81595291	     -5.14778445	     -6.30282875	     -4.21097059	     12.03080433	      5.53257502	    -19.62669050	     15.79656400	     42.88146548	      0.00000000	     34.32000000
      2.68000000	      1.36482804	     -6.52400400	     -9.87250530	     -0.00423131	      0.00403036	     -0.00078352	    -18.84680010	     -5.15537108	     -6.32779645	     -4.23114087	     12.07856708	      5.52811053	    -19.63636936	     15.78349095	     42.89753952	      0.00000000	     34.32000000
      2.69000000	      1.50956679	     -6.37460760	     -9.88051360	     -0.00423131	      0.00403036	     -0.00078352	    -19.05672108	     -5.06084375	     -6.47892062	     -4.28019039	     12.49449692	      5.42630558	    -21.53988743	     15.03554448	     50.19127585	      0.00000000	     34.32000000
